<?xml version="1.0" encoding="utf-8"?>
<!-- Generator: Adobe Illustrator 22.0.1, SVG Export Plug-In . SVG Version: 6.00 Build 0)  -->
<svg version="1.1" xmlns="http://www.w3.org/2000/svg" xmlns:xlink="http://www.w3.org/1999/xlink" x="0px" y="0px"
	 viewBox="0 0 655.3 685.9" style="enable-background:new 0 0 655.3 685.9;" xml:space="preserve">
<style type="text/css">
	.st0{display:none;}
	.st1{fill-rule:evenodd;clip-rule:evenodd;fill:#FFFFFF;}
	.st2{fill-rule:evenodd;clip-rule:evenodd;}
</style>
<g id="_x2014_ÂÚÍ_x2021_">
</g>
<g id="_x2014_ÎÓÈ_1" class="st0">
</g>
<g id="_x2013__x2021_·Ó_x2DC_ËÈ_ÒÚÓÎ" class="st0">
</g>
<g id="Õ_x2021_Ô_xF8FF__x2021__x201A_Î_x2C7__x2DB__x2D8_ËÂ" class="st0">
</g>
<g id="Page_1">
</g>
<g id="_x2014_ÎÓÈ_1_1_">
	<g>
		<polygon class="st1" points="699,688.9 -38,688.9 -38,-48.1 699,-48.1 699,688.9 		"/>
		<g>
			<path class="st2" d="M389.6,688.9c-3.7-12.9-1-19.8,0.6-22.9c15.2-32,1.2-45.3,15.4-44.6c23.8-9,50.8,14.3,73-3.1
				c19.8-23.7,1.7-38,3-53.2c18.7-8.2,15.6-13.5,10.8-23.8c-1.1-2.3-0.9-7,2.1-9.2c17.7-13.4-0.6-19.4,2.4-27.5
				c10.1,2.6,13-0.3,25.1,0.1c25.1-5.5,0.9-32.6-4.7-56.8c-1.5-17.3-15.1-23.3-12.2-32.5c2.4-2.3,4.8,4.9,22-3.4
				c-23.7,9.1-23.3-5-21.6-13.2c3.3-16.4,2.6-48.4,2.1-66.1c-4.2-15.3,13-39.8,25,3.1c-0.5-55-30.5-59.8-50.8-62.5
				c-45.2-44-66.8-33.1-106.5-35.6c-46.4-22.5-90.2,3.5-129.6,16.3c-44.8,3.1-43.2,30.6-58,58.6c-9.4,17.8-40.2,40-15.5,76.3
				c-11.1,31.1,20.9,54.2,27.3,90.9c5.2,9.1,11,29.6,12.5,52c5.6,83.7-14,99.1-15.7,157.2H389.6L389.6,688.9z"/>
			<path class="st2" d="M531.4,330.6c0.4-22.9-27.3-51.3-47.8-36.1c-15.4,11.4-4.5,45.5,23.1,50.9c11,2.2,16.8-0.2,27.5-8.9
				c14.1-9.7,41.8-31,56.1-39.7c11.7,21.7,5.7,45-21.6,44.1c52.2,9.6,37.5-33,50.6-70C595.3,283.4,559.4,311.1,531.4,330.6
				L531.4,330.6z"/>
			<path class="st2" d="M533.6,233.9c16.1,5.7,28.5,32.4,12.6,42.7c-11.9,7.7-32.8-8.9-29.3-29.5c1.4-8.2,4.6-11.6,13.4-16.8
				c10.5-7.3,32.5-20.9,42.3-28.6c-12-13.9-29.8-15.8-36.3,3.4c7-38.8,32.8-17.4,62-16.8C583.2,201.8,554.5,219.5,533.6,233.9
				L533.6,233.9z"/>
			<path class="st2" d="M76,204.1c-8.9,6.7-11.5,25.8,0.5,29.2c9,2.5,18.8-11.9,12.6-24.1c-2.5-4.9-5.1-6.4-11.7-7.9
				c-8-2.5-24.4-6.8-32-9.6c4.8-11,15.5-15.7,23.4-4.9c-11.9-22.9-23.9-4.5-42,1.6C38.8,193.7,60.1,199.1,76,204.1L76,204.1z"/>
			<path class="st2" d="M482.9,236.2c-18.3-13.8-57.5-8.1-57.3,17.4c0.2,19.1,34.2,30.4,54.8,11.2c8.2-7.6,9.7-13.7,9-27.5
				c0.5-17.1-0.5-52,0.9-68.7c24.4,3.2,39.8,21.8,23,43.4c38.5-36.6-4.7-49.8-26.9-82.1C482.4,156.7,483.7,202,482.9,236.2
				L482.9,236.2z"/>
			<path class="st2" d="M446.9,159.9c-14.9-8.3-43.2,0-40.4,18.8c2.1,14,28.3,18.8,41.5,2.5c5.2-6.5,5.7-11.1,3.7-21.2
				c-1.5-12.7-5.8-38.2-6.5-50.7c18.3-0.2,31.5,11.9,21.5,29.5c24.5-30.9-8.6-36.2-28.4-57.6C438.2,101.5,443.9,134.7,446.9,159.9
				L446.9,159.9z"/>
			<path class="st2" d="M575,146.9c-3-12.7-22.2-24.5-31.4-13.3c-6.9,8.4,3.9,25.7,19.9,24.9c6.4-0.3,9.2-2.5,13.9-8.8
				c6.4-7.3,18.8-22.9,25.4-29.7c9.5,10.3,9.4,24-5.8,27.4c30.2-2,16.1-23.5,18.2-45.7C603.7,112,587.7,132.3,575,146.9L575,146.9z"
				/>
			<path class="st2" d="M359.6,209.4c22.9-1.4,52.4,25,38.2,46.2c-10.7,15.8-45.3,6.4-51.8-21c-2.6-10.9-0.5-16.8,7.7-27.9
				c9.1-14.5,29.1-43.1,37.2-57.7c-22.1-10.8-45.2-3.8-43.2,23.4c-11.9-51.8,31.4-38.9,67.8-53.5
				C403.9,143.5,377.8,180.5,359.6,209.4L359.6,209.4z"/>
			<path class="st2" d="M309.7,173.6c14.8-8.5,43.2-0.7,40.7,18.1c-1.9,14.1-28,19.2-41.4,3.2c-5.4-6.4-5.9-11-4.1-21.1
				c1.2-12.7,5.1-38.3,5.7-50.8c-18.3,0.1-31.3,12.4-21,29.9c-25-30.5,8-36.3,27.4-58.1C317.4,115.1,312.3,148.3,309.7,173.6
				L309.7,173.6z"/>
			<path class="st2" d="M605.8,246.5c1.1-12.7-13.3-29.4-25.2-21.7c-8.9,5.7-4.1,25,11,29c6,1.6,9.3,0.5,15.6-4
				c8.2-4.9,24.3-15.7,32.5-20c5.7,12.4,1.6,25.1-13.5,23.7c28.6,7.2,22-17,30.5-37C642.9,222.7,622,236.7,605.8,246.5L605.8,246.5z
				"/>
			<path class="st2" d="M514.9,359.9c9.2-8.8,9.4-30.9-4.6-32.9c-10.5-1.6-19.6,16.1-10.8,29.1c3.5,5.2,6.7,6.5,14.3,7.3
				c9.4,1.7,28.6,4.2,37.6,6.4c-3.9,13.1-15.4,19.9-25.8,8.9c16.8,24.2,27.7,1.7,47.3-7.7C558.5,366.4,533.5,363.2,514.9,359.9
				L514.9,359.9z"/>
			<path class="st2" d="M278.6,230.9c-22.9,0.2-50.5,28.7-34.8,48.8c11.8,15,45.6,3.2,50.2-24.6c1.8-11.1-0.7-16.8-9.7-27.3
				c-10.1-13.9-32.1-40.9-41.2-55c21.3-12.3,44.8-7,44.7,20.3c8.2-52.5-34.1-36.6-71.4-48.6C229.7,168.3,258.4,203.3,278.6,230.9
				L278.6,230.9z"/>
			<path class="st2" d="M256.8,92.5c-14.6-0.4-32.8,17.1-23.3,30.2c7.1,9.8,28.9,3.1,32.5-14.5c1.4-7,0-10.7-5.5-17.6
				c-6.1-9-19.5-26.8-24.9-35.9c13.8-7.3,28.7-3.4,28,14c6.4-33.2-20.8-24.1-44.3-32.6C227.1,51.6,244.5,74.5,256.8,92.5L256.8,92.5
				z"/>
			<path class="st2" d="M490.6,82.9c12.5-1.8,29.8,11.3,23,23.6c-5.1,9.2-24.5,5.6-29.3-9.1c-1.9-5.8-1-9.1,3-15.6
				c4.3-8.4,14-24.9,17.7-33.3c-12.6-4.9-24.9,0-22.5,14.8c-8.9-27.8,15.4-22.7,34.7-32.4C511.9,44.8,499.3,66.3,490.6,82.9
				L490.6,82.9z"/>
			<path class="st2" d="M177,275.8c11-20.1,49.2-31,59.5-7.6c7.7,17.5-18.8,41.7-45.4,32.6c-10.6-3.6-14.4-8.5-19.4-21.4
				c-7.4-15.5-20.9-47.7-28.9-62.3c-21,13-27.4,36.2-3.2,49c-50.1-17.6-16.1-47.3-9.1-85.9C145,203.1,162.3,244.9,177,275.8
				L177,275.8z"/>
			<path class="st2" d="M197.7,206c7.7-15.2,35.8-24.1,44-7c6.1,12.8-13,31.4-33,25.3c-8-2.4-10.9-6-14.9-15.5
				c-5.9-11.3-16.6-34.9-22.9-45.6c-15.3,10.1-19.5,27.5-1.3,36.5c-37.6-12-13.1-34.8-8.7-63.6C172.3,152.7,186.1,183.4,197.7,206
				L197.7,206z"/>
			<path class="st2" d="M401.3,69.4c-9.5-8.7-31.8-7.6-33.1,6.7c-0.9,10.7,17.5,18.8,30.1,9.2c5-3.8,6.2-7.2,6.5-14.9
				c1.2-9.6,2.5-29.2,4.1-38.5c13.5,3.1,21.1,14.3,10.6,25.5c23.5-18.5,0-28.2-10.7-47.4C405.2,24.8,403.6,50.3,401.3,69.4
				L401.3,69.4z"/>
			<path class="st2" d="M104.4,150.2c3.8-10.5,21.3-18.6,28-8.1c5,7.8-5.9,21.4-19.4,19.1c-5.4-0.9-7.6-3-11-8.8
				c-4.7-6.9-13.6-21.3-18.6-27.8c-9.1,7.8-10.4,19.4,2.1,23.8c-25.4-4.7-11.3-21.5-10.8-40.6C83.5,117.6,95,136.4,104.4,150.2
				L104.4,150.2z"/>
			<path class="st2" d="M314.5,51.8c9.2-6.3,28.1-2.7,27.5,9.7c-0.5,9.3-17.3,14-26.9,4.3c-3.8-3.9-4.4-6.9-3.8-13.6
				c0.1-8.3,1.3-25.3,1-33.4c-11.9,1.1-19.8,9.7-12.1,20.6c-17.9-18.6,3.3-24.1,14.8-39.3C316.4,13.1,314.8,35.1,314.5,51.8
				L314.5,51.8z"/>
			<path class="st2" d="M146.7,359c-8.1,21.5,8.6,57.5,33.1,50c18.3-5.6,19.3-41.4-4.9-55.7c-9.7-5.7-15.9-5.4-28.9-0.7
				c-16.6,4.5-49.7,15.3-66.1,18.7c-3.9-24.3,9.5-44.3,35-34.4c-46-26.5-46.4,18.7-71,49.2C70.7,382.2,113.7,368,146.7,359
				L146.7,359z"/>
			<path class="st2" d="M230.7,323c-8.1-21.5,8.6-57.5,33.1-50c18.3,5.6,19.3,41.4-4.9,55.7c-9.7,5.7-15.9,5.4-28.9,0.7
				c-16.6-4.5-49.7-15.3-66.1-18.7c-3.9,24.3,9.5,44.3,35,34.4c-46,26.5-46.4-18.7-71-49.2C154.7,299.9,197.7,314,230.7,323
				L230.7,323z"/>
			<path class="st2" d="M340.4,317.2c15.5-16.9,55.2-18.3,59.5,6.9c3.3,18.8-28.2,36-51.9,20.8c-9.4-6-12-11.7-13.7-25.5
				c-3.5-16.8-8.9-51.3-13.2-67.4c-23.4,7.6-35.2,28.6-14.9,46.8c-44.4-29.1-4.3-49.8,11.8-85.6C326.7,239,333.5,283.7,340.4,317.2
				L340.4,317.2z"/>
			<path class="st2" d="M385.7,284.1c22.1,6.2,41.3,40.9,20.8,56.2c-15.3,11.4-44.8-8.9-42-36.9c1.1-11.2,5-16,16.5-23.8
				c13.4-10.7,41.7-31.1,54.2-42.3c-17.3-17.5-41.4-18.5-48.5,7.9c5.8-52.8,42.5-26.4,81.6-28.2
				C449.3,236.5,412.5,262.9,385.7,284.1L385.7,284.1z"/>
			<path class="st2" d="M87.8,272.6c-10.7,13.3-7.4,42.6,11.6,43c14.2,0.3,23.3-24.7,9.6-40.4c-5.5-6.3-9.9-7.5-20.2-7.3
				c-12.7-0.7-38.7-0.9-51-2.2c3-18.1,17.1-29,32.8-16.1c-26.3-29.4-37.1,2.3-61.6,18.1C28.8,271.2,62.5,271.2,87.8,272.6
				L87.8,272.6z"/>
			<path class="st2" d="M174.3,111.5c5.7-9.6,24.5-14.2,29-2.6c3.4,8.6-9.9,19.9-22.7,15.1c-5.1-1.9-6.9-4.4-9.1-10.8
				c-3.3-7.6-9.3-23.5-13-30.8c-10.4,5.9-14,17.1-2.4,23.8c-24-9.5-7-23.3-2.9-41.9C160,75.5,167.7,96.2,174.3,111.5L174.3,111.5z"
				/>
			<path class="st2" d="M56.1,323.2c-6.8-8.8-4.2-28,8.2-28c9.3,0,14.9,16.5,5.7,26.6c-3.7,4-6.6,4.8-13.4,4.5
				c-8.3,0.3-25.3,0-33.4,0.7c1.7,11.9,10.8,19.3,21.2,11c-17.6,18.9-24.2-2.1-40.1-12.8C17.4,323.3,39.5,323.7,56.1,323.2
				L56.1,323.2z"/>
		</g>
	</g>
</g>
</svg>
